<svg data-v-423bf9ae="" xmlns="http://www.w3.org/2000/svg" viewBox="0 0 60.000004577637064 60" class="icon"><!----><!----><!----><!----><g data-v-423bf9ae="" id="a96ab788-2b30-4626-bd23-54e91f770078" transform="matrix(0.6000000457763707,0,0,0.6000000457763707,-6.000000839233607,-6.000000457763704)" stroke="none" fill="black"><path d="M69.4 39.2H50.6c-1.7 0-3.1 1.5-3.1 3.1v56.2c0 1.7 1.5 3.1 3.1 3.1h18.8c1.7 0 3.1-1.5 3.1-3.1V42.3c0-1.7-1.5-3.1-3.1-3.1zM31.9 39.2H13.1c-1.7 0-3.1 1.5-3.1 3.1v64.6c0 1.7 1.5 3.1 3.1 3.1h18.8c1.7 0 3.1-1.5 3.1-3.1V42.3c0-1.7-1.5-3.1-3.1-3.1zM106.9 10H13.1c-1.7 0-3.1 1.5-3.1 3.1v10.4c0 1.7 1.5 3.1 3.1 3.1h93.8c1.7 0 3.1-1.5 3.1-3.1V13.1c0-1.6-1.5-3.1-3.1-3.1zM106.9 39.2H88.1c-1.7 0-3.1 1.5-3.1 3.1v47.9c0 1.7 1.5 3.1 3.1 3.1h18.8c1.7 0 3.1-1.5 3.1-3.1V42.3c0-1.7-1.5-3.1-3.1-3.1z"></path></g><!----></svg>